# xmcd
#
# Track frame offsets: 
#        150
#        31184
#        62549
#        98660
#        126227
#        155127
#        193741
#        223483
#        250859
#        280394
#        326648
#
# Disc length: 4772 seconds
#
# Revision: 0
# Processed by: cddbd v1.5.2PL0 Copyright (c) Steve Scherf et al.
# Submitted via: ExactAudioCopy v1.3
#
DISCID=a712a20b
DTITLE=Various Artist - Akella Presents - vol. 219 - Longtime Rockin'
DTITLE=Blues  CD2
DYEAR=2019
DGENRE=Blues
TTITLE0=Michael Burks - Icepick Through My Heart
TTITLE1=Dave P.Moore - Rain so Hard
TTITLE2=Russ Green - The Edge
TTITLE3=Mojo Chyld - Pitiful
TTITLE4=Fillmore Slim - Mary Sue
TTITLE5=Snowy White - Why Do I Still Have the Blues
TTITLE6=Burton Gaar - Tear It Up
TTITLE7=Hanno Bruhn Gang - Blues im Haus
TTITLE8=Bobby Parker - Somebody's Comin' in My Back Door
TTITLE9=Big Daddy Wilson - Walk A Mile In My Shoes
TTITLE10=Eric Bibb - Don't Ever Let Nobody Drag Your Spirit Down
EXTD=
EXTT0=
EXTT1=
EXTT2=
EXTT3=
EXTT4=
EXTT5=
EXTT6=
EXTT7=
EXTT8=
EXTT9=
EXTT10=
PLAYORDER=
